<svg xmlns="http://www.w3.org/2000/svg" xmlns:xlink="http://www.w3.org/1999/xlink" viewBox="0 0 646.9 145.3"><defs><style>.cls-1{fill:#fff;}.cls-2{fill:url(#linear-gradient);}</style><linearGradient id="linear-gradient" x1="27.45" y1="72.65" x2="646.9" y2="72.65" gradientUnits="userSpaceOnUse"><stop offset="0" stop-color="#5cacc4"/><stop offset="0.13" stop-color="#65b3bc"/><stop offset="0.35" stop-color="#7fc7a7"/><stop offset="0.45" stop-color="#8cd19c"/><stop offset="0.5" stop-color="#a1d891"/><stop offset="0.58" stop-color="#cfe879"/><stop offset="0.75" stop-color="#fcb653"/><stop offset="0.99" stop-color="#ff5154"/></linearGradient></defs><title>kompaz-bgOscuro</title><g id="Layer_2" data-name="Layer 2"><g id="logo"><path class="cls-1" d="M36,66.07,21.12,83.67v33H0V5H21.12V60h.8L37.76,39,65.44,5H89.76L50.88,51.51,93,116.63H67.84Z"/><path class="cls-1" d="M300.76,36.47h-.64l-8.64,17.76L268.6,96.47,245.72,54.23l-8.64-17.76h-.64v80.16h-20V5h23.84l28.64,54.56h.64L297.88,5h22.88V116.63h-20Z"/><path class="cls-1" d="M614.55,116.63H530.87V97.78l57.92-74.11h-55V5H613V23.8L554.87,97.91h59.68Z"/><path class="cls-2" d="M641.4,145.3c-60.21,0-87.11-46.42-108.72-83.71C517,34.44,503.36,11,481.75,11c-26.56,0-37,21.18-50.12,48-18.83,38.38-42.28,86.14-124.85,86.14-47.63,0-72.34-21.69-96.24-42.67-21-18.46-40.9-35.89-75.92-35.89-60.66,0-96.36,72.79-96.71,73.52A5.5,5.5,0,0,1,28,135.33,185.24,185.24,0,0,1,55.4,95.7c23.73-26.26,51.12-40.13,79.22-40.13,39.16,0,61.54,19.63,83.18,38.62,22.37,19.64,45.49,39.94,89,39.94,75.72,0,96.58-42.5,115-80C435.43,26.3,448.33,0,481.75,0c27.95,0,43.74,27.24,60.45,56.07,21.24,36.67,45.32,78.23,99.2,78.23a5.5,5.5,0,0,1,0,11Z"/><path class="cls-1" d="M147.18,118.55a52.28,52.28,0,0,1-20-3.68,39.8,39.8,0,0,1-15.28-11,52.56,52.56,0,0,1-9.84-18.08,80.24,80.24,0,0,1-3.52-25,80.52,80.52,0,0,1,3.52-24.88,52.58,52.58,0,0,1,9.84-18.16,40,40,0,0,1,15.28-11,56.19,56.19,0,0,1,40,0,40.51,40.51,0,0,1,15.36,11,50.67,50.67,0,0,1,9.84,18.16,81.84,81.84,0,0,1,3.44,24.88,81.56,81.56,0,0,1-3.44,25,50.64,50.64,0,0,1-9.84,18.08,40.3,40.3,0,0,1-15.36,11A52.24,52.24,0,0,1,147.18,118.55Zm0-18.72q12,0,19.12-8t7.12-22.4V52.15q0-14.4-7.12-22.4t-19.12-8q-12,0-19.12,8t-7.12,22.4V69.43q0,14.4,7.12,22.4T147.18,99.83Z"/><path class="cls-1" d="M346.42,116.63V5h50.24A36.85,36.85,0,0,1,410.5,7.43a29.44,29.44,0,0,1,10.48,7,30.22,30.22,0,0,1,6.56,11,42.47,42.47,0,0,1,2.24,14.08,42.24,42.24,0,0,1-2.24,14.16A30.22,30.22,0,0,1,421,64.55a29.31,29.31,0,0,1-10.48,7,36.66,36.66,0,0,1-13.84,2.48H367.54v42.56Zm21.12-60.8h27.2q6.08,0,9.6-3.28t3.52-9.36V35.83q0-6.07-3.52-9.28t-9.6-3.2h-27.2Z"/></g></g></svg>